<svg width="205" height="205" viewBox="0 0 205 205" fill="none" xmlns="http://www.w3.org/2000/svg">
<g clip-path="url(#clip0_28_2)">
<mask id="mask0_28_2" style="mask-type:luminance" maskUnits="userSpaceOnUse" x="136" y="0" width="70" height="69">
<path d="M205 0H136.667V68.3333H205V0Z" fill="white"/>
</mask>
<g mask="url(#mask0_28_2)">
<path d="M205 0H136.667V68.3333H205V0Z" fill="#E5F3F6"/>
<path d="M146.79 58.6637C160.068 58.6637 170.833 47.6961 170.833 34.1668C170.833 20.6376 160.068 9.66992 146.79 9.66992C133.511 9.66992 122.747 20.6376 122.747 34.1668C122.747 47.6961 133.511 58.6637 146.79 58.6637Z" fill="#1C4F92"/>
<path d="M218.92 34.1668C218.92 47.696 208.156 58.6636 194.877 58.6636C181.598 58.6636 170.834 47.696 170.834 34.1668C170.834 20.6375 181.598 9.66992 194.877 9.66992C208.156 9.66992 218.92 20.6375 218.92 34.1668ZM174.531 34.1668C174.531 45.6159 183.64 54.8972 194.877 54.8972C206.114 54.8972 215.224 45.6159 215.224 34.1668C215.224 22.7176 206.114 13.4363 194.877 13.4363C183.64 13.4363 174.531 22.7176 174.531 34.1668Z" fill="#111D5E"/>
</g>
<path d="M205 68.3333H136.667V136.667H205V68.3333Z" fill="#1C4F92"/>
<path d="M170.517 136.667C189.212 136.667 204.367 121.226 204.367 102.178C204.367 83.1302 189.212 67.689 170.517 67.689C151.822 67.689 136.667 83.1302 136.667 102.178C136.667 121.226 151.822 136.667 170.517 136.667Z" fill="#111D5E"/>
<path d="M205 136.667H136.667V205H205V136.667Z" fill="#E5F3F6"/>
<path d="M167.987 205C177.247 205 184.754 197.496 184.754 188.239C184.754 178.982 177.247 171.478 167.987 171.478C158.727 171.478 151.22 178.982 151.22 188.239C151.22 197.496 158.727 205 167.987 205Z" fill="#111D5E"/>
<path d="M184.754 154.717C184.754 163.974 177.247 171.478 167.987 171.478C158.727 171.478 151.22 163.974 151.22 154.717C151.22 145.46 158.727 137.956 167.987 137.956C177.247 137.956 184.754 145.46 184.754 154.717ZM153.83 154.717C153.83 162.533 160.168 168.868 167.987 168.868C175.805 168.868 182.143 162.533 182.143 154.717C182.143 146.901 175.805 140.566 167.987 140.566C160.168 140.566 153.83 146.901 153.83 154.717Z" fill="#111D5E"/>
<path d="M186.019 137.956H189.815V205H186.019V137.956Z" fill="#111D5E"/>
<path d="M68.3333 136.667H0V205H68.3333V136.667Z" fill="#E5F3F6"/>
<path d="M12.6545 155.016C15.45 155.016 17.7162 152.75 17.7162 149.954C17.7162 147.159 15.45 144.892 12.6545 144.892C9.85899 144.892 7.59277 147.159 7.59277 149.954C7.59277 152.75 9.85899 155.016 12.6545 155.016Z" fill="#1C4F92"/>
<path d="M12.6545 168.935C15.45 168.935 17.7162 166.669 17.7162 163.873C17.7162 161.078 15.45 158.811 12.6545 158.811C9.85899 158.811 7.59277 161.078 7.59277 163.873C7.59277 166.669 9.85899 168.935 12.6545 168.935Z" fill="#111D5E"/>
<path d="M12.6545 182.855C15.45 182.855 17.7162 180.588 17.7162 177.793C17.7162 174.997 15.45 172.731 12.6545 172.731C9.85899 172.731 7.59277 174.997 7.59277 177.793C7.59277 180.588 9.85899 182.855 12.6545 182.855Z" fill="#1C4F92"/>
<path d="M12.6545 196.775C15.45 196.775 17.7162 194.509 17.7162 191.713C17.7162 188.918 15.45 186.651 12.6545 186.651C9.85899 186.651 7.59277 188.918 7.59277 191.713C7.59277 194.509 9.85899 196.775 12.6545 196.775Z" fill="#111D5E"/>
<path d="M26.5744 155.016C29.3699 155.016 31.6362 152.75 31.6362 149.954C31.6362 147.159 29.3699 144.892 26.5744 144.892C23.7789 144.892 21.5127 147.159 21.5127 149.954C21.5127 152.75 23.7789 155.016 26.5744 155.016Z" fill="#111D5E"/>
<path d="M26.5744 168.935C29.3699 168.935 31.6362 166.669 31.6362 163.873C31.6362 161.078 29.3699 158.811 26.5744 158.811C23.7789 158.811 21.5127 161.078 21.5127 163.873C21.5127 166.669 23.7789 168.935 26.5744 168.935Z" fill="#1C4F92"/>
<path d="M26.5744 182.855C29.3699 182.855 31.6362 180.588 31.6362 177.793C31.6362 174.997 29.3699 172.731 26.5744 172.731C23.7789 172.731 21.5127 174.997 21.5127 177.793C21.5127 180.588 23.7789 182.855 26.5744 182.855Z" fill="#111D5E"/>
<path d="M26.5744 196.775C29.3699 196.775 31.6362 194.509 31.6362 191.713C31.6362 188.918 29.3699 186.651 26.5744 186.651C23.7789 186.651 21.5127 188.918 21.5127 191.713C21.5127 194.509 23.7789 196.775 26.5744 196.775Z" fill="#1C4F92"/>
<path d="M40.4934 155.016C43.2889 155.016 45.5551 152.75 45.5551 149.954C45.5551 147.159 43.2889 144.892 40.4934 144.892C37.6979 144.892 35.4316 147.159 35.4316 149.954C35.4316 152.75 37.6979 155.016 40.4934 155.016Z" fill="#1C4F92"/>
<path d="M40.4934 168.935C43.2889 168.935 45.5551 166.669 45.5551 163.873C45.5551 161.078 43.2889 158.811 40.4934 158.811C37.6979 158.811 35.4316 161.078 35.4316 163.873C35.4316 166.669 37.6979 168.935 40.4934 168.935Z" fill="#111D5E"/>
<path d="M40.4934 182.855C43.2889 182.855 45.5551 180.588 45.5551 177.793C45.5551 174.997 43.2889 172.731 40.4934 172.731C37.6979 172.731 35.4316 174.997 35.4316 177.793C35.4316 180.588 37.6979 182.855 40.4934 182.855Z" fill="#1C4F92"/>
<path d="M40.4934 196.775C43.2889 196.775 45.5551 194.509 45.5551 191.713C45.5551 188.918 43.2889 186.651 40.4934 186.651C37.6979 186.651 35.4316 188.918 35.4316 191.713C35.4316 194.509 37.6979 196.775 40.4934 196.775Z" fill="#111D5E"/>
<path d="M54.4133 155.016C57.2088 155.016 59.475 152.75 59.475 149.954C59.475 147.159 57.2088 144.892 54.4133 144.892C51.6178 144.892 49.3516 147.159 49.3516 149.954C49.3516 152.75 51.6178 155.016 54.4133 155.016Z" fill="#111D5E"/>
<path d="M54.4133 168.935C57.2088 168.935 59.475 166.669 59.475 163.873C59.475 161.078 57.2088 158.811 54.4133 158.811C51.6178 158.811 49.3516 161.078 49.3516 163.873C49.3516 166.669 51.6178 168.935 54.4133 168.935Z" fill="#1C4F92"/>
<path d="M54.4133 182.855C57.2088 182.855 59.475 180.588 59.475 177.793C59.475 174.997 57.2088 172.731 54.4133 172.731C51.6178 172.731 49.3516 174.997 49.3516 177.793C49.3516 180.588 51.6178 182.855 54.4133 182.855Z" fill="#111D5E"/>
<path d="M54.4133 196.775C57.2088 196.775 59.475 194.509 59.475 191.713C59.475 188.918 57.2088 186.651 54.4133 186.651C51.6178 186.651 49.3516 188.918 49.3516 191.713C49.3516 194.509 51.6178 196.775 54.4133 196.775Z" fill="#1C4F92"/>
<path d="M136.666 68.3333H68.333V136.667H136.666V68.3333Z" fill="#111D5E"/>
<path d="M85.8957 101.211C92.4207 101.211 97.7103 95.8711 97.7103 89.2845C97.7103 82.6979 92.4207 77.3584 85.8957 77.3584C79.3706 77.3584 74.0811 82.6979 74.0811 89.2845C74.0811 95.8711 79.3706 101.211 85.8957 101.211Z" fill="white"/>
<path d="M116.55 125.707C123.075 125.707 128.365 120.368 128.365 113.781C128.365 107.194 123.075 101.855 116.55 101.855C110.025 101.855 104.735 107.194 104.735 113.781C104.735 120.368 110.025 125.707 116.55 125.707Z" fill="white"/>
<path d="M128.365 89.2845C128.365 95.8711 123.075 101.211 116.55 101.211C110.025 101.211 104.735 95.8711 104.735 89.2845C104.735 82.6979 110.025 77.3584 116.55 77.3584C123.075 77.3584 128.365 82.6979 128.365 89.2845ZM106.575 89.2845C106.575 94.8455 111.041 99.3537 116.55 99.3537C122.059 99.3537 126.525 94.8455 126.525 89.2845C126.525 83.7234 122.059 79.2153 116.55 79.2153C111.041 79.2153 106.575 83.7234 106.575 89.2845Z" fill="white"/>
<path d="M97.7103 113.781C97.7103 120.368 92.4207 125.708 85.8957 125.708C79.3706 125.708 74.0811 120.368 74.0811 113.781C74.0811 107.195 79.3706 101.855 85.8957 101.855C92.4207 101.855 97.7103 107.195 97.7103 113.781ZM75.9206 113.781C75.9206 119.342 80.3866 123.851 85.8957 123.851C91.4048 123.851 95.8708 119.342 95.8708 113.781C95.8708 108.22 91.4048 103.712 85.8957 103.712C80.3866 103.712 75.9206 108.22 75.9206 113.781Z" fill="white"/>
<path d="M97.7103 113.781C97.7103 120.368 92.4207 125.708 85.8957 125.708C79.3706 125.708 74.0811 120.368 74.0811 113.781C74.0811 107.195 79.3706 101.855 85.8957 101.855C92.4207 101.855 97.7103 107.195 97.7103 113.781ZM75.9206 113.781C75.9206 119.342 80.3866 123.851 85.8957 123.851C91.4048 123.851 95.8708 119.342 95.8708 113.781C95.8708 108.22 91.4048 103.712 85.8957 103.712C80.3866 103.712 75.9206 108.22 75.9206 113.781Z" fill="white"/>
<path d="M98.3483 77.3584H100.903V125.707H98.3483V77.3584Z" fill="white"/>
<path d="M128.364 78.0032H130.919V126.352H128.364V78.0032Z" fill="white"/>
<mask id="mask1_28_2" style="mask-type:luminance" maskUnits="userSpaceOnUse" x="68" y="136" width="69" height="70">
<path d="M136.666 136.667H68.333V205H136.666V136.667Z" fill="white"/>
</mask>
<g mask="url(#mask1_28_2)">
<path d="M136.666 136.667H68.333V205H136.666V136.667Z" fill="#1C4F92"/>
<path d="M102.5 205.645C121.37 205.645 136.667 190.204 136.667 171.156C136.667 152.108 121.37 136.667 102.5 136.667C83.6305 136.667 68.3335 152.108 68.3335 171.156C68.3335 190.204 83.6305 205.645 102.5 205.645Z" fill="#F6FBFC"/>
<path d="M136.666 171.156C136.666 190.203 121.369 205.645 102.5 205.645C83.6299 205.645 68.333 190.203 68.333 171.156C68.333 152.108 83.6299 136.667 102.5 136.667C121.369 136.667 136.666 152.108 136.666 171.156ZM76.2017 171.156C76.2017 185.817 87.9757 197.702 102.5 197.702C117.024 197.702 128.798 185.817 128.798 171.156C128.798 156.495 117.024 144.61 102.5 144.61C87.9757 144.61 76.2017 156.495 76.2017 171.156Z" fill="#111D5E"/>
</g>
</g>
<defs>
<clipPath id="clip0_28_2">
<rect width="205" height="205" fill="white"/>
</clipPath>
</defs>
</svg>
